<?xml version="1.0" standalone="no"?>
<!DOCTYPE svg PUBLIC "-//W3C//DTD SVG 20010904//EN"
 "http://www.w3.org/TR/2001/REC-SVG-20010904/DTD/svg10.dtd">
<svg version="1.0" xmlns="http://www.w3.org/2000/svg"
 width="8000.000000pt" height="4993.000000pt" viewBox="0 0 8000.000000 4993.000000"
 preserveAspectRatio="xMidYMid meet">

<g transform="translate(0.000000,4993.000000) scale(0.100000,-0.100000)"
fill="#000000" stroke="none">
<path d="M38653 42656 c2 -6 50 -153 107 -326 56 -173 114 -352 129 -397 l27
-83 -77 -372 c-42 -205 -75 -375 -73 -377 2 -2 78 65 169 148 92 83 170 151
174 151 6 0 31 -75 136 -405 74 -231 149 -460 151 -464 2 -2 261 140 576 315
722 400 811 450 873 483 28 15 111 61 185 103 74 41 155 86 180 100 203 111
310 170 310 173 0 1 -476 162 -1057 356 -582 194 -1228 410 -1436 479 -208 70
-376 122 -374 116z"/>
<path d="M38115 41365 c-115 -24 -229 -48 -253 -54 -44 -12 -45 -16 -27 -77 2
-7 46 -1 132 18 70 16 184 39 253 52 l125 23 -3 34 c-2 19 -7 37 -10 40 -4 3
-101 -13 -217 -36z"/>
<path d="M37405 41194 c-78 -23 -394 -124 -421 -134 -22 -9 -23 -12 -12 -37 6
-15 15 -32 19 -37 4 -4 83 17 176 47 92 31 201 65 242 77 73 21 73 22 67 52
-3 17 -6 34 -6 39 0 11 -4 11 -65 -7z"/>
<path d="M36535 40884 c-44 -19 -151 -69 -237 -111 l-156 -76 16 -33 c8 -19
19 -34 24 -34 5 0 61 26 126 59 64 32 167 80 227 106 61 26 111 49 113 50 3 2
-27 75 -31 74 -1 0 -38 -16 -82 -35z"/>
<path d="M35645 40402 c-189 -127 -254 -174 -255 -185 0 -4 10 -21 21 -37 l22
-29 76 58 c66 50 292 204 338 230 14 7 14 12 -3 40 -10 17 -23 31 -29 31 -5 0
-82 -48 -170 -108z"/>
<path d="M34989 39863 c-118 -120 -239 -258 -239 -272 0 -5 13 -19 29 -30 l29
-21 77 91 c42 50 121 137 176 193 l99 103 -23 21 c-13 12 -28 22 -33 22 -5 0
-57 -48 -115 -107z"/>
<path d="M34483 39218 c-52 -82 -213 -368 -213 -380 0 -7 52 -38 64 -38 2 0
28 44 57 98 29 53 87 154 129 223 l76 126 -33 21 -33 22 -47 -72z"/>
<path d="M54016 39189 c-7 -19 -123 -304 -256 -634 -132 -330 -385 -957 -561
-1394 -177 -436 -317 -797 -312 -801 17 -15 96 -41 104 -33 8 8 37 79 316 773
96 239 177 438 179 441 2 4 33 -9 69 -28 284 -151 609 -155 914 -12 46 21 85
38 86 37 1 -2 241 -624 535 -1383 293 -759 551 -1426 573 -1482 25 -66 37
-110 34 -125 -5 -17 -29 -37 -79 -65 -109 -62 -186 -84 -309 -90 -121 -6 -208
6 -319 44 -81 28 -250 110 -289 141 l-24 19 -78 -53 c-264 -180 -566 -243
-831 -175 -148 38 -303 115 -395 196 l-48 42 -45 -39 c-182 -160 -446 -203
-720 -116 -73 23 -248 107 -287 138 -15 11 -27 19 -28 18 -1 -2 -5 -631 -9
-1398 -3 -767 -8 -1519 -11 -1670 -4 -269 -20 -2345 -20 -2690 l0 -175 -25 -5
c-23 -5 -26 -11 -32 -80 -4 -41 -16 -1420 -28 -3065 -11 -1644 -23 -3189 -27
-3432 l-6 -443 -1022 0 -1023 0 -6 -22 c-3 -13 -6 -29 -6 -35 0 -10 353 -13
1713 -15 l1712 -3 0 -545 0 -545 -785 -2 c-432 -1 -798 1 -815 6 -16 5 -93 27
-170 49 -303 87 -593 141 -970 182 -92 10 -2339 10 -4775 1 l-1675 -6 -52 -27
c-116 -62 -159 -136 -178 -306 -7 -64 -22 -144 -34 -176 -61 -174 -201 -313
-381 -378 l-65 -23 -3543 -3 c-3920 -2 -3602 -8 -3741 63 -39 19 -100 63 -137
97 -125 116 -179 231 -195 412 -15 169 -67 258 -184 316 l-50 25 -1720 6
c-3251 12 -4604 10 -4760 -6 -377 -38 -713 -105 -1058 -211 l-78 -24 -785 0
-784 0 0 550 0 550 1710 0 c1361 0 1710 3 1710 13 0 6 -3 22 -6 35 l-6 22
-1708 0 -1708 0 -4 203 c-4 190 -6 206 -30 269 -92 232 -294 372 -538 372
-243 1 -453 -149 -542 -387 l-23 -62 -3 -980 c-2 -868 -1 -988 13 -1052 25
-111 68 -187 154 -274 120 -121 239 -170 409 -170 211 1 398 114 497 302 53
100 65 168 65 367 l0 172 703 0 702 0 -125 -54 c-1183 -504 -1883 -1454 -2024
-2746 -36 -328 -87 -1292 -146 -2745 -80 -1968 -137 -2798 -261 -3775 -119
-946 -253 -1621 -534 -2690 -151 -576 -297 -1165 -365 -1475 -28 -126 -53
-240 -55 -252 l-5 -23 -383 1 c-338 1 -378 2 -350 15 41 17 63 60 63 119 0 75
-43 133 -113 150 -14 4 -42 26 -61 50 -19 23 -66 63 -103 88 -89 60 -1290 594
-1304 580 -7 -7 179 -94 538 -253 684 -303 704 -312 750 -346 49 -36 113 -96
113 -106 0 -10 -1260 -10 -2168 -1 l-662 6 0 249 c0 159 -4 248 -10 248 -6 0
-10 -90 -10 -250 l0 -249 -30 -16 c-17 -9 -33 -27 -36 -41 -10 -41 2 -212 16
-229 11 -13 -82 -15 -876 -14 -774 1 -885 2 -857 15 108 47 86 225 -32 264
-18 6 -64 41 -102 78 -37 37 -95 81 -128 99 -77 40 -1231 553 -1246 553 -44 0
69 -54 601 -290 333 -148 628 -283 657 -301 29 -18 73 -54 100 -81 l47 -48
-755 0 c-416 0 -1053 3 -1417 7 l-662 6 -2 245 c-2 186 -6 246 -16 250 -9 3
-12 -50 -12 -243 l0 -246 -35 -33 c-35 -33 -35 -34 -35 -117 1 -46 7 -101 14
-122 l14 -37 -2317 0 c-1493 0 -2355 -4 -2426 -10 -60 -6 -160 -19 -222 -30
-62 -11 -115 -20 -118 -20 -3 0 -5 333 -5 740 l0 740 -807 0 -808 0 0 172 c0
95 4 524 9 953 13 1152 -11 2174 -74 3200 -20 321 -55 764 -92 1148 -7 79 -8
130 -2 136 30 27 281 103 434 131 115 20 357 46 365 39 2 -3 -1 -23 -7 -45
-17 -61 -14 -201 6 -268 26 -89 78 -184 144 -267 143 -179 292 -279 471 -316
102 -21 334 -13 486 17 61 12 157 30 215 41 310 59 651 -10 1098 -222 l124
-59 186 99 c103 54 189 95 190 90 2 -5 -12 -33 -31 -62 -137 -208 -149 -230
-132 -239 94 -53 397 -373 568 -601 l82 -110 8 89 c14 144 13 734 -1 869 -54
511 -144 849 -322 1210 -191 386 -444 675 -787 899 -185 121 -474 243 -654
276 l-66 12 -78 -42 c-65 -35 -264 -138 -287 -148 -5 -2 -8 39 -8 92 0 70 -3
96 -12 96 -35 0 -204 -22 -283 -36 -519 -94 -787 -275 -851 -575 -30 -139 -3
-315 72 -477 l34 -75 -33 -36 -32 -37 -170 -12 c-259 -18 -488 -63 -675 -132
-45 -16 -82 -30 -84 -30 -1 0 -3 15 -4 33 -8 113 -84 680 -129 962 l-25 160 6
480 c3 264 8 496 10 515 3 19 7 80 11 135 11 181 36 427 61 607 24 171 80 484
90 500 3 4 23 -26 44 -68 78 -148 221 -341 242 -328 6 4 8 2 5 -3 -7 -12 84
-101 158 -155 287 -207 677 -257 1125 -143 184 47 397 128 603 232 69 34 105
58 101 65 -4 7 -3 8 5 4 25 -16 549 315 543 343 -1 7 2 9 8 6 6 -4 45 19 86
50 l74 57 -57 28 c-498 236 -584 279 -584 287 1 4 204 18 451 30 l451 21 97
94 c284 272 568 466 897 613 286 128 597 209 853 222 61 3 112 10 112 14 0 18
-40 108 -76 169 -127 219 -407 501 -758 763 -168 127 -348 247 -369 247 -13 0
-112 -46 -472 -219 -44 -21 -81 -35 -83 -31 -2 4 42 83 98 175 55 91 98 170
95 175 -6 9 -247 99 -360 134 -720 220 -1495 229 -2204 26 -388 -112 -785
-313 -1046 -531 -232 -194 -403 -422 -491 -655 -49 -132 -94 -417 -94 -598 1
-156 39 -347 93 -466 58 -128 166 -259 266 -325 33 -22 61 -46 61 -54 0 -7 -7
-39 -15 -72 -85 -327 -148 -805 -184 -1389 -4 -69 -10 -118 -13 -110 -3 8 -32
123 -63 255 -185 770 -413 1389 -699 1889 l-86 150 50 145 c265 780 277 1592
32 2216 -231 586 -668 1038 -1317 1363 -66 33 -188 88 -270 122 -223 93 -665
233 -682 216 -4 -4 -9 -152 -11 -329 -2 -177 -8 -326 -13 -332 -6 -5 -9 -4 -9
4 0 7 -5 9 -12 5 -6 -4 -8 -3 -4 4 3 6 -48 104 -115 219 -67 114 -151 259
-187 322 -37 62 -72 116 -79 118 -12 5 -242 -11 -338 -23 -135 -17 -399 -81
-560 -136 -433 -147 -876 -409 -1219 -721 l-80 -72 64 -7 c551 -64 917 -155
1425 -355 206 -81 576 -259 775 -373 849 -487 1618 -1223 2205 -2110 404 -609
612 -1080 829 -1875 72 -262 222 -961 213 -988 -1 -5 -25 16 -52 48 -179 210
-508 430 -792 528 -265 93 -455 122 -793 121 -285 0 -404 -12 -688 -69 -95
-19 -174 -35 -176 -35 -2 0 -7 35 -11 78 -18 200 -74 357 -172 485 -59 77
-130 132 -228 177 -123 58 -190 72 -365 77 -179 5 -285 -7 -499 -61 -121 -31
-394 -121 -443 -147 -15 -8 -12 -19 30 -102 26 -50 48 -95 50 -99 2 -5 -111
-8 -251 -8 l-255 0 -79 -64 c-232 -188 -463 -486 -612 -790 -120 -245 -198
-499 -242 -786 -18 -119 -23 -190 -23 -400 -1 -153 4 -297 12 -360 67 -541
229 -1050 520 -1625 83 -164 255 -471 278 -495 12 -12 14 -11 14 10 0 40 67
363 105 505 61 230 168 525 207 573 6 7 9 14 7 16 -2 2 -84 51 -182 109 -98
58 -173 108 -167 112 6 4 123 4 259 0 l249 -6 83 108 c194 252 411 470 604
608 120 86 129 92 221 137 101 51 158 71 369 129 287 79 478 156 602 240 159
108 287 294 348 504 64 223 72 416 22 563 -44 129 -151 264 -265 336 -24 15
-42 30 -39 32 9 9 117 31 252 53 847 133 1526 -79 1976 -618 127 -152 190
-251 200 -313 43 -265 105 -792 143 -1208 44 -478 92 -1222 81 -1240 -4 -6
-10 -8 -15 -5 -18 11 -279 -17 -389 -41 -291 -65 -568 -205 -839 -423 -57 -46
-105 -82 -106 -80 -2 2 -14 24 -26 49 -39 79 -136 203 -217 280 -140 134 -296
221 -488 271 -81 22 -111 24 -300 24 -242 0 -331 -14 -563 -90 -121 -40 -316
-118 -335 -135 -4 -4 76 -120 177 -258 102 -139 181 -252 176 -252 -4 0 -36 9
-71 20 -172 52 -434 90 -627 90 l-118 0 -72 -147 c-354 -735 -584 -1495 -667
-2213 -22 -188 -31 -600 -16 -780 12 -153 34 -316 43 -326 3 -3 64 28 134 69
150 86 422 224 509 258 33 12 63 25 67 28 3 4 -1 75 -11 158 -11 103 -14 153
-7 152 6 0 58 -58 116 -130 58 -71 110 -129 116 -129 7 0 189 47 405 105 217
58 473 127 569 152 96 25 179 49 184 54 5 4 3 100 -4 223 -7 119 -11 219 -7
222 3 3 88 -62 189 -145 100 -83 191 -151 200 -151 24 0 265 86 433 155 762
311 1302 721 1464 1110 55 131 74 238 75 420 0 137 -3 173 -23 250 -26 101
-74 211 -121 280 -106 154 -304 301 -471 349 -59 17 -273 35 -386 32 -39 -1
-69 2 -67 6 12 19 228 155 323 203 219 109 419 163 637 172 l141 6 7 -164 c44
-1057 33 -2586 -29 -3919 -8 -173 -15 -325 -15 -337 l0 -23 -740 0 -740 0 0
-2622 c1 -2255 3 -2627 15 -2648 8 -14 14 -28 15 -32 0 -5 -362 -8 -804 -8
l-805 0 -3 -90 -3 -90 35145 0 35145 0 -3 90 -3 90 -2387 0 c-1312 0 -2382 4
-2377 8 6 5 37 15 70 22 33 7 116 30 183 52 928 296 1602 1061 1747 1983 25
160 30 445 11 610 -53 452 -223 858 -512 1225 -83 105 -281 303 -394 394 -318
256 -716 443 -1125 530 -279 58 214 54 -7152 58 -5399 2 -6764 6 -6768 16 -7
18 -104 16 -111 -3 -5 -13 -104 -15 -801 -15 l-796 0 7 853 c4 468 31 4306 61
8527 30 4221 71 9905 90 12630 l36 4956 -70 179 c-38 99 -281 729 -541 1400
-259 671 -498 1288 -530 1370 -113 291 -473 1223 -557 1440 -46 121 -86 221
-88 224 -3 2 -11 -11 -19 -30z m1671 -4932 c-1 -45 -3 -5 -3 88 0 94 2 130 3
82 2 -48 2 -125 0 -170z m-10 -1304 c-1 -98 -2 -18 -2 177 0 195 1 275 2 178
2 -98 2 -258 0 -355z m-10 -1400 c-1 -98 -2 -20 -2 172 -1 193 1 273 2 178 2
-94 2 -252 0 -350z m-10 -1400 c-1 -98 -2 -20 -2 172 -1 193 1 273 2 178 2
-94 2 -252 0 -350z m-10 -1075 c-1 -40 -3 -8 -3 72 0 80 2 112 3 73 2 -40 2
-106 0 -145z m0 -110 c-3 -7 -5 -2 -5 12 0 14 2 19 5 13 2 -7 2 -19 0 -25z m0
-290 c-1 -51 -3 -10 -3 92 0 102 2 143 3 93 2 -51 2 -135 0 -185z m-10 -1005
c-2 -38 -3 -7 -3 67 0 74 1 105 3 68 2 -38 2 -98 0 -135z m0 -95 c-3 -8 -6 -5
-6 6 -1 11 2 17 5 13 3 -3 4 -12 1 -19z m0 -295 c-1 -54 -3 -12 -3 92 0 105 2
149 3 98 2 -51 2 -136 0 -190z m-10 -1040 c-1 -43 -3 -8 -3 77 0 85 2 120 3
78 2 -43 2 -113 0 -155z m0 -370 c-1 -54 -3 -10 -3 97 0 107 2 151 3 98 2 -54
2 -142 0 -195z m-10 -1310 c-1 -98 -2 -20 -2 172 -1 193 1 273 2 178 2 -94 2
-252 0 -350z m-10 -1400 c-1 -98 -2 -20 -2 172 -1 193 1 273 2 178 2 -94 2
-252 0 -350z m-29544 -748 c166 -43 307 -177 364 -347 16 -49 18 -124 21 -978
2 -594 -1 -955 -7 -1010 -52 -421 -561 -597 -856 -296 -33 34 -72 84 -87 112
-60 110 -58 79 -58 1140 0 941 1 974 20 1036 36 118 125 229 235 293 102 60
251 81 368 50z m28090 0 c86 -22 149 -58 220 -125 67 -62 125 -156 146 -237 8
-30 12 -328 12 -1021 -1 -951 -1 -980 -21 -1043 -24 -80 -81 -170 -144 -227
-57 -53 -170 -108 -251 -123 -240 -45 -491 110 -565 349 -19 62 -20 95 -20
1041 0 865 2 984 16 1032 50 172 188 308 357 354 69 18 179 19 250 0z m1444
-653 c-1 -97 -2 -15 -2 183 0 198 1 278 2 177 2 -101 2 -263 0 -360z m-10
-1399 c-1 -98 -2 -18 -2 177 0 195 1 275 2 178 2 -98 2 -258 0 -355z m-10
-905 c-3 -7 -5 -2 -5 12 0 14 2 19 5 13 2 -7 2 -19 0 -25z m0 -215 c-2 -37 -3
-9 -3 62 0 72 1 102 3 68 2 -34 2 -93 0 -130z m0 -350 c-1 -54 -3 -12 -3 92 0
105 2 149 3 98 2 -51 2 -136 0 -190z m-10 -835 c-3 -7 -5 -2 -5 12 0 14 2 19
5 13 2 -7 2 -19 0 -25z m0 -170 c-2 -29 -3 -6 -3 52 0 58 1 81 3 53 2 -29 2
-77 0 -105z m0 -100 c-3 -7 -5 -2 -5 12 0 14 2 19 5 13 2 -7 2 -19 0 -25z m0
-305 c-1 -54 -3 -10 -3 97 0 107 2 151 3 98 2 -54 2 -142 0 -195z m-3201 -975
c-7 -654 -20 -1357 -36 -2088 -15 -640 -16 -809 -6 -852 l8 -38 -12345 0
-12345 0 -6 63 c-3 34 -10 562 -16 1172 -5 611 -13 1388 -16 1728 l-7 617
12388 0 12388 0 -7 -602z m3191 160 c-3 -8 -6 -5 -6 6 -1 11 2 17 5 13 3 -3 4
-12 1 -19z m0 -511 c-1 -89 -3 -13 -3 168 0 182 2 254 3 162 2 -93 2 -241 0
-330z m-10 -1074 c-1 -43 -3 -10 -3 72 0 83 2 118 3 78 2 -40 2 -107 0 -150z
m0 -391 c-1 -53 -3 -7 -3 103 0 110 2 154 3 97 2 -57 2 -147 0 -200z m-10
-1324 c-1 -90 -3 -17 -3 162 0 179 2 252 3 163 2 -90 2 -236 0 -325z m-25447
-683 l0 -195 -165 0 -165 0 0 -38 c0 -113 -66 -258 -159 -351 -108 -109 -237
-161 -397 -161 -284 0 -513 206 -548 493 l-7 57 -160 0 -159 0 0 195 0 195
880 0 880 0 0 -195z m3084 3 l-2 -193 -161 -3 -161 -2 0 -30 c0 -89 -59 -242
-125 -320 -109 -131 -256 -200 -425 -200 -161 0 -289 51 -395 157 -86 86 -141
194 -157 311 l-12 82 -163 0 -163 0 0 195 0 195 883 0 882 0 -1 -192z m3086
-3 l0 -195 -165 0 -165 0 0 -35 c0 -117 -64 -261 -159 -356 -105 -104 -235
-159 -382 -159 -104 0 -171 14 -254 54 -181 86 -302 272 -314 484 -1 9 -40 12
-161 12 l-160 0 0 195 0 195 880 0 880 0 0 -195z m3088 3 l-3 -193 -162 -3
-163 -2 0 -33 c0 -51 -27 -153 -56 -210 -66 -131 -180 -233 -312 -279 -94 -32
-288 -32 -375 0 -83 30 -189 104 -238 165 -70 87 -128 232 -129 325 l0 32
-165 0 -165 0 0 195 0 195 885 0 885 0 -2 -192z m3082 -3 l0 -195 -165 0 -165
0 0 -43 c0 -55 -31 -163 -67 -229 -15 -29 -57 -82 -93 -118 -109 -109 -237
-161 -393 -161 -158 1 -281 53 -392 165 -97 98 -141 192 -160 339 l-6 47 -160
0 -159 0 0 195 0 195 880 0 880 0 0 -195z m3090 0 l0 -195 -165 0 -165 0 0
-32 c0 -52 -27 -154 -56 -211 -69 -138 -181 -234 -328 -282 -77 -25 -95 -27
-193 -23 -133 7 -217 36 -315 108 -121 91 -196 226 -214 383 l-7 57 -163 0
-164 0 0 195 0 195 885 0 885 0 0 -195z m3080 0 l0 -195 -162 -2 -163 -3 -6
-55 c-25 -229 -186 -418 -405 -474 -34 -9 -100 -16 -146 -16 -156 0 -277 49
-387 158 -97 95 -143 191 -166 350 l-7 42 -159 0 -159 0 0 195 0 195 880 0
880 0 0 -195z m3090 0 l0 -195 -164 0 -163 0 -6 -60 c-30 -280 -263 -490 -547
-491 -292 0 -523 204 -556 491 l-7 60 -161 2 -161 3 -3 193 -2 192 885 0 885
0 0 -195z m3837 -713 c-1 -97 -2 -15 -2 183 0 198 1 278 2 177 2 -101 2 -263
0 -360z m-1000 -14 c-3 -8 -6 -5 -6 6 -1 11 2 17 5 13 3 -3 4 -12 1 -19z m30
-320 c-3 -7 -5 -2 -5 12 0 14 2 19 5 13 2 -7 2 -19 0 -25z m10 -90 c-3 -8 -6
-5 -6 6 -1 11 2 17 5 13 3 -3 4 -12 1 -19z m-22947 -293 l0 -195 -160 0 c-159
0 -160 0 -160 -22 -1 -99 -69 -271 -137 -343 -123 -132 -251 -188 -428 -187
-285 2 -508 206 -544 495 l-6 52 -162 3 -163 2 0 195 0 195 880 0 880 0 0
-195z m3090 0 l0 -195 -162 -2 -163 -3 -6 -55 c-46 -424 -537 -639 -881 -386
-56 40 -131 125 -160 179 -29 55 -58 149 -62 207 l-4 55 -161 3 -161 2 0 195
0 195 880 0 880 0 0 -195z m3090 0 l-2 -195 -161 -2 -161 -3 -18 -90 c-35
-182 -139 -324 -291 -398 -93 -46 -151 -59 -262 -59 -281 1 -507 204 -543 487
l-7 60 -163 3 -162 2 0 195 0 195 885 0 886 0 -1 -195z m3080 0 l0 -195 -162
-2 -163 -3 -3 -48 c-9 -121 -80 -265 -175 -353 -133 -124 -331 -176 -507 -135
-129 31 -269 130 -340 241 -41 64 -78 170 -83 240 l-4 55 -162 3 -161 2 0 195
0 195 880 0 880 0 0 -195z m3090 0 l0 -195 -162 -2 -163 -3 -13 -79 c-50 -302
-320 -506 -617 -465 -259 35 -452 228 -483 484 l-7 60 -163 3 -162 2 0 195 0
195 885 0 885 0 0 -195z m3080 0 l0 -195 -162 -2 -162 -3 -4 -45 c-5 -69 -37
-169 -77 -235 -134 -223 -404 -323 -650 -240 -44 14 -101 40 -126 56 -69 44
-152 137 -189 210 -42 83 -51 110 -58 189 l-7 65 -162 3 -163 2 0 195 0 195
880 0 880 0 0 -195z m3090 0 l0 -195 -162 -2 -162 -3 -14 -80 c-29 -177 -144
-337 -293 -408 -95 -46 -154 -59 -260 -59 -152 -1 -280 53 -389 162 -80 80
-125 165 -147 280 -9 47 -17 91 -19 98 -3 9 -44 12 -164 12 l-160 0 0 195 0
195 885 0 885 0 0 -195z m4467 -57 c-3 -8 -6 -5 -6 6 -1 11 2 17 5 13 3 -3 4
-12 1 -19z m10 -80 c-3 -8 -6 -5 -6 6 -1 11 2 17 5 13 3 -3 4 -12 1 -19z m900
-50 c-3 -8 -6 -5 -6 6 -1 11 2 17 5 13 3 -3 4 -12 1 -19z m0 -500 c-1 -90 -3
-17 -3 162 0 179 2 252 3 163 2 -90 2 -236 0 -325z m-880 400 c-3 -8 -6 -5 -6
6 -1 11 2 17 5 13 3 -3 4 -12 1 -19z m70 -480 c-3 -8 -6 -5 -6 6 -1 11 2 17 5
13 3 -3 4 -12 1 -19z m10 -70 c-3 -8 -6 -5 -6 6 -1 11 2 17 5 13 3 -3 4 -12 1
-19z m790 -1240 c-1 -101 -2 -19 -2 182 0 201 1 283 2 183 2 -101 2 -265 0
-365z m-25417 317 l0 -195 -165 0 -165 0 0 -38 c0 -113 -66 -259 -160 -353
-108 -107 -238 -160 -394 -160 -280 1 -506 197 -547 476 l-11 75 -159 0 -159
0 0 195 0 195 880 0 880 0 0 -195z m3081 0 l0 -190 -159 -3 -158 -2 -12 -81
c-31 -211 -190 -391 -401 -453 -33 -10 -92 -16 -149 -16 -190 0 -355 86 -455
238 -53 81 -74 133 -90 232 l-12 75 -162 3 -163 2 0 195 0 195 881 -2 881 -3
-1 -190z m3089 0 l0 -195 -162 -2 -163 -3 -7 -60 c-29 -228 -189 -413 -404
-469 -34 -9 -100 -16 -146 -16 -160 0 -279 50 -393 165 -95 96 -142 194 -160
338 l-6 47 -160 0 -159 0 0 195 0 195 880 0 880 0 0 -195z m3090 0 l0 -195
-163 0 -163 0 -12 -82 c-21 -149 -114 -295 -242 -381 -122 -82 -318 -111 -462
-67 -208 63 -356 233 -390 448 l-12 82 -163 0 -163 0 0 195 0 195 885 0 885 0
0 -195z m3080 0 l0 -195 -162 -2 -163 -3 -7 -60 c-14 -127 -68 -237 -162 -330
-107 -105 -232 -156 -386 -156 -157 1 -279 51 -391 161 -95 93 -141 191 -164
348 l-7 42 -159 0 -159 0 0 195 0 195 880 0 880 0 0 -195z m3090 0 l0 -195
-165 0 -165 0 0 -32 c0 -59 -30 -159 -67 -230 -144 -275 -506 -374 -776 -211
-146 88 -243 242 -263 416 l-7 57 -163 0 -164 0 0 195 0 195 885 0 885 0 0
-195z m3080 0 l0 -195 -162 -2 -162 -3 -12 -81 c-16 -117 -68 -218 -153 -303
-112 -111 -232 -161 -391 -161 -158 0 -280 50 -391 160 -95 95 -139 189 -164
353 l-6 37 -159 0 -160 0 0 195 0 195 880 0 880 0 0 -195z m3090 0 l0 -195
-165 0 -165 0 0 -32 c0 -58 -30 -159 -66 -229 -171 -325 -620 -391 -881 -130
-87 87 -137 190 -156 319 l-11 72 -163 0 -163 0 0 195 0 195 885 0 885 0 0
-195z m3187 63 c-3 -8 -6 -5 -6 6 -1 11 2 17 5 13 3 -3 4 -12 1 -19z m70 -320
c-3 -8 -6 -5 -6 6 -1 11 2 17 5 13 3 -3 4 -12 1 -19z m550 -1431 c-1 -84 -3
-12 -3 158 0 171 2 239 3 152 2 -87 2 -227 0 -310z m-23877 -67 l0 -199 -157
0 -158 0 -13 -75 c-23 -141 -80 -247 -181 -337 -169 -151 -424 -182 -625 -77
-81 43 -195 156 -233 233 -33 65 -63 172 -63 223 l0 32 -162 2 -163 3 -3 185
c-1 101 0 190 2 197 4 10 178 13 881 13 l875 0 0 -200z m3085 0 l0 -195 -161
-3 -161 -2 -6 -58 c-25 -274 -268 -492 -549 -492 -282 0 -518 212 -554 496
l-6 54 -159 0 -159 0 0 200 0 200 878 -2 877 -3 0 -195z m3090 0 l0 -195 -162
-3 c-161 -2 -163 -3 -163 -25 -1 -50 -31 -161 -62 -224 -41 -85 -149 -196
-233 -239 -163 -86 -365 -84 -527 3 -81 43 -180 142 -222 222 -36 70 -66 171
-66 228 l0 33 -162 2 -163 3 -3 185 c-1 101 0 190 2 197 4 11 175 13 883 11
l878 -3 0 -195z m3083 3 l-3 -198 -160 -5 -160 -5 -3 -45 c-4 -57 -45 -179
-76 -228 -86 -135 -199 -219 -347 -257 -124 -33 -311 -5 -416 62 -132 83 -237
235 -257 368 -4 22 -9 55 -12 72 l-6 33 -157 2 -156 3 -3 198 -2 197 880 0
880 0 -2 -197z m3087 -3 l0 -195 -160 -2 -160 -2 -13 -75 c-23 -141 -80 -247
-181 -337 -169 -151 -421 -182 -626 -76 -90 47 -194 155 -238 247 -35 75 -57
155 -57 210 l0 30 -147 1 c-82 1 -155 2 -163 3 -13 1 -15 30 -18 186 -1 101 0
190 2 197 4 11 175 13 883 11 l878 -3 0 -195z m3085 0 l0 -200 -159 0 -159 0
-6 -27 c-2 -16 -7 -46 -11 -68 -18 -115 -92 -242 -193 -327 -181 -154 -451
-171 -652 -39 -144 94 -241 251 -252 411 l-3 45 -160 5 -160 5 -3 198 -2 197
880 0 880 0 0 -200z m3085 0 l0 -195 -160 -2 -160 -2 -13 -75 c-45 -274 -245
-456 -517 -473 -168 -10 -298 40 -421 162 -98 97 -164 240 -164 355 l0 30
-162 2 -163 3 -3 185 c-1 101 0 190 2 197 4 11 175 13 883 11 l878 -3 0 -195z
m5192 8 c-3 -8 -6 -5 -6 6 -1 11 2 17 5 13 3 -3 4 -12 1 -19z m6264 -195 l56
-33 4619 -1 c2641 0 4647 -4 4684 -9 160 -22 224 -34 350 -62 74 -17 137 -32
139 -34 2 -2 -1 -9 -7 -17 -9 -10 -6 -13 11 -14 12 0 16 1 9 4 -6 3 -10 8 -7
13 5 9 54 -2 77 -16 7 -5 21 -7 32 -5 12 2 16 -1 11 -10 -5 -7 -4 -10 2 -6 16
10 196 -60 188 -73 -3 -5 3 -6 12 -4 24 5 119 -49 115 -66 -2 -11 0 -11 11 -1
12 9 16 8 22 -6 5 -10 7 -22 6 -26 -1 -5 3 -6 9 -2 6 3 7 11 4 17 -8 13 35 -9
59 -30 10 -9 24 -17 32 -18 31 -5 285 -187 285 -205 0 -6 4 -8 9 -5 4 3 16 -3
25 -13 17 -18 16 -20 -1 -30 -16 -9 -16 -10 4 -8 12 0 19 5 17 9 -3 4 -2 8 3
8 8 0 245 -240 269 -272 7 -8 27 -32 45 -52 l33 -38 -25 -20 -24 -20 26 15
c25 15 28 15 43 -2 19 -20 21 -35 4 -25 -7 4 -8 3 -4 -5 4 -6 11 -9 16 -6 13
8 40 -41 35 -64 -2 -12 0 -19 6 -16 5 4 7 11 4 16 -4 5 -4 9 -1 9 11 0 86
-132 80 -142 -4 -6 -3 -8 3 -5 13 8 26 -20 16 -35 -3 -6 -1 -8 5 -5 12 8 64
-91 55 -106 -3 -6 -1 -7 4 -4 12 7 35 -47 26 -57 -4 -3 -2 -6 4 -6 13 0 35
-49 28 -61 -4 -5 -1 -9 6 -9 7 0 9 -3 6 -7 -4 -3 -3 -11 2 -17 17 -20 40 -98
34 -114 -4 -10 -2 -13 5 -8 11 7 16 -7 15 -41 -1 -7 3 -13 8 -13 5 0 9 -9 9
-21 0 -11 4 -29 10 -39 5 -10 10 -33 12 -51 1 -19 6 -40 11 -47 6 -8 5 -18 -4
-29 -9 -11 -10 -14 -2 -10 15 9 28 -33 20 -63 -3 -11 -2 -18 3 -15 13 8 35
-218 34 -350 -3 -232 -46 -519 -88 -574 -8 -11 -8 -13 1 -8 9 6 8 -2 -2 -26
-8 -19 -11 -37 -8 -41 4 -3 -2 -6 -13 -6 -13 0 -15 -3 -7 -8 14 -9 6 -52 -9
-52 -6 0 -7 -7 -4 -16 3 -9 -5 -25 -21 -40 -15 -14 -20 -22 -10 -18 9 3 17 2
17 -4 0 -5 -7 -12 -15 -16 -8 -3 -13 -11 -10 -18 6 -18 -50 -140 -60 -131 -4
5 -6 1 -2 -9 6 -16 -54 -130 -134 -254 -30 -47 -45 -61 -62 -60 -25 2 -47 -11
-47 -28 0 -6 4 -5 9 3 9 14 51 24 51 12 -1 -16 -148 -186 -159 -183 -7 1 -9
-2 -6 -8 9 -14 -34 -62 -48 -53 -6 3 -7 2 -4 -4 14 -22 -309 -308 -336 -297
-7 2 -21 -3 -32 -11 -19 -15 -19 -16 3 -5 47 23 32 1 -25 -38 -364 -247 -773
-396 -1213 -443 -49 -5 -2030 -9 -4693 -9 l-4607 0 -57 -30 -56 -30 -5095 0
-5094 0 -49 26 c-145 80 -153 286 -14 381 54 36 122 43 452 43 l301 0 30 78
c94 247 179 593 208 850 l7 62 -87 0 c-79 0 -89 2 -111 25 -14 13 -25 29 -25
35 0 6 11 22 25 35 22 23 32 25 119 25 l94 0 7 133 c3 72 5 249 3 392 l-3 260
-90 2 c-49 2 -100 5 -113 8 -32 8 -47 51 -27 81 14 22 23 24 117 26 l103 3 -3
45 c-7 112 -46 413 -77 595 -64 377 -145 712 -257 1063 l-62 192 -205 1 c-337
1 -368 6 -434 68 -94 86 -96 230 -6 320 25 25 59 47 88 55 40 13 750 14 5121
13 l5075 -2 56 -32z m-34560 -1030 c45 -38 62 -84 49 -132 -12 -47 -49 -88
-87 -96 -62 -14 -78 -22 -88 -43 -9 -21 -16 -22 -179 -24 l-170 -3 -38 -120
c-143 -450 -230 -864 -277 -1315 -20 -190 -25 -615 -11 -792 25 -293 90 -600
178 -841 l36 -97 227 0 227 0 15 -24 c11 -16 28 -25 57 -29 70 -9 128 -84 114
-145 -7 -28 -32 -73 -47 -83 -5 -4 -3589 -10 -7965 -13 -5859 -6 -7981 -5
-8047 4 -115 14 -329 70 -448 116 -646 255 -1099 782 -1227 1430 -42 212 -38
490 10 716 153 710 746 1291 1500 1468 218 51 -268 48 8212 49 l7926 1 33 -27z"/>
<path d="M29513 16614 c-2 -6 -3 -71 -1 -143 l3 -131 -103 0 -102 0 2 -162 3
-162 95 0 95 -1 3 -143 3 -142 172 2 172 3 0 135 c0 110 3 136 15 142 8 4 328
7 710 7 l695 0 3 160 2 161 -712 0 -713 0 0 141 0 141 -169 1 c-116 2 -170 -1
-173 -9z"/>
<path d="M48902 16623 c-4 -2 -6 -65 -5 -140 l2 -138 -102 -5 -102 -5 0 -159
0 -159 85 2 c110 3 122 -2 120 -48 -1 -20 -2 -82 -1 -138 l1 -103 170 0 170 0
0 139 c0 119 2 140 16 145 9 3 327 6 708 6 l691 -1 3 161 2 160 -709 0 -710 0
-3 140 -3 140 -163 3 c-89 1 -165 1 -170 0z"/>
<path d="M30616 15072 c-3 -5 -4 -70 -3 -145 l2 -137 -653 0 -652 0 2 -162 3
-163 647 -3 647 -2 3 -138 3 -137 173 -3 172 -2 0 140 0 139 158 3 157 3 3
163 2 162 -159 0 -160 0 -3 143 -3 142 -167 3 c-91 1 -169 -1 -172 -6z"/>
<path d="M50000 14935 l0 -145 -652 -2 -653 -3 0 -160 0 -160 653 -3 652 -2 0
-140 0 -140 170 0 170 0 0 140 0 139 158 3 157 3 3 163 2 162 -160 0 -160 0 0
145 0 145 -170 0 -170 0 0 -145z m7 -377 c-1 -40 -3 -8 -3 72 0 80 2 112 3 73
2 -40 2 -106 0 -145z m330 40 c-2 -35 -3 -9 -3 57 0 66 1 94 3 63 2 -32 2 -86
0 -120z"/>
<path d="M71128 7443 c7 -3 16 -2 19 1 4 3 -2 6 -13 5 -11 0 -14 -3 -6 -6z"/>
<path d="M61712 7350 c0 -14 2 -19 5 -12 2 6 2 18 0 25 -3 6 -5 1 -5 -13z"/>
<path d="M61741 7254 c0 -11 3 -14 6 -6 3 7 2 16 -1 19 -3 4 -6 -2 -5 -13z"/>
<path d="M70653 7153 c9 -2 23 -2 30 0 6 3 -1 5 -18 5 -16 0 -22 -2 -12 -5z"/>
<path d="M72104 7086 c11 -9 24 -16 30 -16 12 0 7 5 -24 19 -24 11 -24 11 -6
-3z"/>
<path d="M71250 7079 c0 -5 5 -7 10 -4 6 3 10 8 10 11 0 2 -4 4 -10 4 -5 0
-10 -5 -10 -11z"/>
<path d="M71400 7080 c0 -5 5 -10 11 -10 5 0 7 5 4 10 -3 6 -8 10 -11 10 -2 0
-4 -4 -4 -10z"/>
<path d="M71388 7053 c7 -3 16 -2 19 1 4 3 -2 6 -13 5 -11 0 -14 -3 -6 -6z"/>
<path d="M72156 7042 c-3 -4 4 -9 15 -9 23 -2 25 3 4 10 -8 4 -16 3 -19 -1z"/>
<path d="M71477 7004 c23 -17 30 -17 30 -1 0 6 -11 13 -24 13 -22 2 -23 1 -6
-12z"/>
<path d="M71560 6976 c0 -2 7 -7 16 -10 8 -3 12 -2 9 4 -6 10 -25 14 -25 6z"/>
<path d="M72260 6970 c-9 -6 -10 -10 -3 -10 6 0 15 5 18 10 8 12 4 12 -15 0z"/>
<path d="M71660 6950 c12 -8 13 -11 1 -19 -8 -5 -9 -11 -3 -15 11 -7 25 21 16
35 -3 5 -11 9 -17 9 -7 0 -6 -4 3 -10z"/>
<path d="M71700 6930 c-9 -6 -10 -10 -3 -10 6 0 15 5 18 10 8 12 4 12 -15 0z"/>
<path d="M72319 6913 c-13 -16 -12 -17 4 -4 9 7 17 15 17 17 0 8 -8 3 -21 -13z"/>
<path d="M71720 6886 c0 -2 7 -7 16 -10 8 -3 12 -2 9 4 -6 10 -25 14 -25 6z"/>
<path d="M71858 6853 c7 -3 16 -2 19 1 4 3 -2 6 -13 5 -11 0 -14 -3 -6 -6z"/>
<path d="M72407 6844 c-7 -8 3 -34 13 -34 9 0 8 26 -1 35 -3 3 -8 2 -12 -1z"/>
<path d="M72444 6818 c1 -7 5 -18 9 -25 4 -6 4 -18 1 -26 -3 -8 -1 -17 3 -20
8 -5 10 43 3 51 -1 1 -3 6 -4 11 0 5 -4 12 -8 16 -3 4 -6 1 -4 -7z"/>
<path d="M71870 6800 c8 -5 22 -9 30 -9 10 0 8 3 -5 9 -27 12 -43 12 -25 0z"/>
<path d="M71945 6761 c-3 -5 0 -13 6 -17 8 -4 9 -3 5 4 -4 7 -1 12 8 12 20 0
30 -17 14 -23 -7 -3 -3 -4 10 -4 27 1 27 6 5 23 -21 16 -40 18 -48 5z"/>
<path d="M72510 6750 c0 -5 5 -10 11 -10 5 0 7 5 4 10 -3 6 -8 10 -11 10 -2 0
-4 -4 -4 -10z"/>
<path d="M72570 6680 c0 -5 5 -10 11 -10 5 0 7 5 4 10 -3 6 -8 10 -11 10 -2 0
-4 -4 -4 -10z"/>
<path d="M72054 6671 c4 -6 16 -16 28 -22 15 -8 18 -8 14 0 -4 6 -16 16 -28
22 -15 8 -18 8 -14 0z"/>
<path d="M72149 6620 c-14 -14 -14 -18 0 -30 13 -12 14 -12 9 2 -4 8 -1 21 5
27 6 6 9 12 6 14 -2 2 -11 -4 -20 -13z"/>
<path d="M72605 6580 c-3 -5 -1 -10 4 -10 6 0 11 5 11 10 0 6 -2 10 -4 10 -3
0 -8 -4 -11 -10z"/>
<path d="M72660 6586 c0 -2 8 -10 18 -17 15 -13 16 -12 3 4 -13 16 -21 21 -21
13z"/>
<path d="M72266 6534 c-5 -14 -4 -15 9 -4 17 14 19 20 6 20 -5 0 -12 -7 -15
-16z"/>
<path d="M72210 6536 c0 -2 8 -10 18 -17 15 -13 16 -12 3 4 -13 16 -21 21 -21
13z"/>
<path d="M72276 6481 c-7 -11 22 -36 31 -27 3 3 1 6 -6 6 -7 0 -10 4 -6 9 3 5
1 12 -4 15 -5 4 -12 2 -15 -3z"/>
<path d="M72310 6431 c0 -6 4 -13 10 -16 6 -3 7 1 4 9 -7 18 -14 21 -14 7z"/>
<path d="M72346 6401 c-3 -5 2 -15 12 -22 15 -12 16 -12 5 2 -7 9 -10 19 -6
22 3 4 4 7 0 7 -3 0 -8 -4 -11 -9z"/>
<path d="M72370 6356 c0 -2 8 -10 18 -17 15 -13 16 -12 3 4 -13 16 -21 21 -21
13z"/>
<path d="M72414 6321 c0 -11 4 -17 8 -15 4 3 8 12 8 20 0 8 -4 14 -8 14 -4 0
-8 -9 -8 -19z"/>
<path d="M72815 6324 c-20 -16 -19 -16 4 -9 18 6 22 4 16 -6 -5 -8 -4 -10 0
-6 11 9 16 37 7 37 -4 0 -16 -8 -27 -16z"/>
<path d="M72445 6271 c-6 -11 13 -26 22 -17 4 3 1 6 -6 6 -7 0 -9 5 -6 10 3 6
4 10 1 10 -3 0 -7 -4 -11 -9z"/>
<path d="M72471 6238 c-1 -11 41 -79 46 -74 3 2 -1 15 -8 28 -7 12 -12 27 -11
31 1 5 -2 6 -7 3 -5 -4 -12 0 -14 6 -3 7 -6 10 -6 6z"/>
<path d="M72890 6205 c7 -9 15 -13 17 -11 7 7 -7 26 -19 26 -6 0 -6 -6 2 -15z"/>
<path d="M72551 6098 c20 -38 34 -52 22 -21 -4 11 -3 14 5 9 8 -5 10 -2 5 9
-4 12 -8 13 -13 5 -5 -8 -9 -7 -14 5 -3 9 -4 20 -1 24 2 4 -2 8 -10 8 -11 0
-9 -9 6 -39z"/>
<path d="M72939 6093 c-13 -16 -12 -17 4 -4 16 13 21 21 13 21 -2 0 -10 -8
-17 -17z"/>
<path d="M72985 6040 c10 -11 20 -20 23 -20 3 0 -3 9 -13 20 -10 11 -20 20
-23 20 -3 0 3 -9 13 -20z"/>
<path d="M72620 5961 c0 -6 4 -13 10 -16 6 -3 7 1 4 9 -7 18 -14 21 -14 7z"/>
<path d="M73010 5950 c-9 -6 -10 -10 -3 -10 6 0 15 5 18 10 8 12 4 12 -15 0z"/>
<path d="M72646 5917 c3 -10 9 -15 12 -12 3 3 0 11 -7 18 -10 9 -11 8 -5 -6z"/>
<path d="M73019 5928 c-6 -13 -5 -69 1 -73 4 -2 6 11 4 30 -1 23 1 33 8 29 7
-4 8 -2 4 4 -7 11 -15 15 -17 10z"/>
<path d="M72697 5790 c3 -11 10 -23 16 -27 7 -4 8 0 4 11 -4 10 -7 22 -7 27 0
5 -4 9 -9 9 -5 0 -7 -9 -4 -20z"/>
<path d="M72731 5694 c0 -11 3 -14 6 -6 3 7 2 16 -1 19 -3 4 -6 -2 -5 -13z"/>
<path d="M72751 5694 c0 -11 3 -14 6 -6 3 7 2 16 -1 19 -3 4 -6 -2 -5 -13z"/>
<path d="M73125 5569 c-4 -6 -5 -12 -2 -15 2 -3 7 2 10 11 7 17 1 20 -8 4z"/>
<path d="M72781 5454 c0 -11 3 -14 6 -6 3 7 2 16 -1 19 -3 4 -6 -2 -5 -13z"/>
<path d="M72802 5150 c0 -14 2 -19 5 -12 2 6 2 18 0 25 -3 6 -5 1 -5 -13z"/>
<path d="M72797 5011 c-4 -17 -3 -21 5 -13 5 5 8 16 6 23 -3 8 -7 3 -11 -10z"/>
<path d="M72791 4944 c0 -11 3 -14 6 -6 3 7 2 16 -1 19 -3 4 -6 -2 -5 -13z"/>
<path d="M72705 4600 c-3 -5 -1 -10 4 -10 6 0 11 5 11 10 0 6 -2 10 -4 10 -3
0 -8 -4 -11 -10z"/>
<path d="M72670 4511 c0 -5 5 -13 10 -16 6 -3 10 -2 10 4 0 5 -4 13 -10 16 -5
3 -10 2 -10 -4z"/>
<path d="M72646 4423 c-6 -14 -5 -15 5 -6 7 7 10 15 7 18 -3 3 -9 -2 -12 -12z"/>
<path d="M72587 4315 c-4 -8 -2 -17 3 -20 6 -4 10 3 10 14 0 25 -6 27 -13 6z"/>
<path d="M72956 4291 c-17 -6 -17 -8 -4 -14 10 -3 19 0 22 9 3 8 4 14 3 13 -1
0 -11 -4 -21 -8z"/>
<path d="M72590 4259 c0 -5 5 -7 10 -4 6 3 10 8 10 11 0 2 -4 4 -10 4 -5 0
-10 -5 -10 -11z"/>
<path d="M72515 4200 c-3 -5 -1 -10 4 -10 6 0 11 5 11 10 0 6 -2 10 -4 10 -3
0 -8 -4 -11 -10z"/>
<path d="M72460 4114 c-21 -29 -29 -49 -23 -55 6 -6 15 -3 24 8 13 16 12 17
-3 4 -11 -8 -18 -9 -18 -3 0 13 20 26 40 27 10 0 15 9 14 25 -1 14 4 28 10 32
8 5 8 8 0 8 -6 0 -25 -21 -44 -46z m30 -4 c0 -5 -4 -10 -10 -10 -5 0 -10 5
-10 10 0 6 5 10 10 10 6 0 10 -4 10 -10z"/>
<path d="M72896 4142 c-2 -4 -1 -14 3 -21 6 -10 10 -9 14 3 6 16 -8 32 -17 18z"/>
<path d="M72510 4129 c0 -5 5 -7 10 -4 6 3 10 8 10 11 0 2 -4 4 -10 4 -5 0
-10 -5 -10 -11z"/>
<path d="M72381 4009 c-13 -17 -21 -31 -19 -32 8 -5 58 52 50 57 -5 3 -19 -8
-31 -25z"/>
<path d="M72352 3946 c7 -8 15 -12 17 -11 5 6 -10 25 -20 25 -5 0 -4 -6 3 -14z"/>
<path d="M72277 3890 c-16 -16 -26 -30 -23 -30 2 0 20 14 38 30 18 17 28 30
23 30 -6 0 -23 -13 -38 -30z"/>
<path d="M72157 3774 c-38 -36 -114 -99 -170 -141 -56 -41 -103 -80 -105 -87
-3 -7 -1 -8 5 0 10 13 99 74 108 74 3 0 3 -4 0 -10 -4 -6 1 -7 11 -3 12 4 14
8 5 11 -7 2 5 19 31 42 23 21 46 36 52 33 5 -3 6 -1 2 5 -4 7 -3 12 1 12 5 0
40 29 78 65 38 36 65 65 59 65 -5 -1 -40 -30 -77 -66z"/>
<path d="M72630 3819 c0 -5 5 -7 10 -4 6 3 10 8 10 11 0 2 -4 4 -10 4 -5 0
-10 -5 -10 -11z"/>
<path d="M72693 3816 c1 -6 -4 -10 -11 -8 -8 1 -11 -2 -7 -8 5 -8 13 -6 26 6
23 21 23 21 5 21 -8 0 -14 -5 -13 -11z"/>
<path d="M72546 3662 c-3 -5 1 -9 9 -9 8 0 12 4 9 9 -3 4 -7 8 -9 8 -2 0 -6
-4 -9 -8z"/>
<path d="M72447 3589 c7 -7 15 -10 18 -7 3 3 -2 9 -12 12 -14 6 -15 5 -6 -5z"/>
<path d="M71934 3566 c-16 -13 -17 -17 -5 -28 12 -11 13 -11 6 0 -4 8 0 19 11
27 11 8 16 15 13 15 -3 0 -14 -6 -25 -14z"/>
<path d="M71827 3526 c-47 -29 -51 -33 -32 -33 8 0 15 5 15 10 0 5 7 7 15 3 8
-3 14 -1 12 4 -1 5 7 16 18 24 29 23 15 19 -28 -8z"/>
<path d="M71645 3429 c-66 -32 -110 -57 -97 -56 12 1 22 5 22 9 0 4 6 8 14 8
8 0 51 20 97 44 45 24 88 42 96 39 7 -3 13 -3 13 0 0 19 -40 6 -145 -44z"/>
<path d="M71455 3349 c-60 -25 -61 -25 -36 -32 11 -2 28 3 38 12 10 9 29 22
43 28 42 19 8 13 -45 -8z"/>
<path d="M71346 3311 c-19 -7 -19 -8 -1 -15 11 -4 21 -2 26 6 6 9 12 8 26 -3
16 -13 17 -13 4 4 -14 18 -25 20 -55 8z"/>
<path d="M71275 3290 c-13 -6 -15 -9 -5 -9 13 -1 13 -2 0 -11 -8 -5 -11 -10
-7 -10 5 0 20 9 34 20 26 20 14 26 -22 10z"/>
<path d="M71200 3270 c-20 -6 -21 -8 -5 -8 11 0 29 3 40 8 25 11 -1 11 -35 0z"/>
<path d="M71980 3258 c0 -6 7 -8 15 -5 8 4 17 2 20 -3 4 -6 12 -10 18 -10 14
1 -22 23 -40 26 -7 1 -13 -2 -13 -8z"/>
<path d="M72070 3260 c-12 -7 -10 -9 7 -7 12 0 19 5 17 9 -6 10 -6 10 -24 -2z"/>
<path d="M71070 3245 l-65 -13 67 1 c38 1 68 5 68 9 0 3 8 9 18 11 39 10 -25
4 -88 -8z"/>
<path d="M70925 3220 c-4 -6 8 -8 31 -5 49 6 56 15 11 15 -20 0 -39 -5 -42
-10z"/>
<path d="M72019 3213 c-13 -16 -12 -17 4 -4 16 13 21 21 13 21 -2 0 -10 -8
-17 -17z"/>
<path d="M70848 3213 c12 -2 32 -2 45 0 12 2 2 4 -23 4 -25 0 -35 -2 -22 -4z"/>
<path d="M63872 3203 c1275 -2 3361 -2 4635 0 1275 1 232 2 -2317 2 -2549 0
-3592 -1 -2318 -2z"/>
<path d="M61640 3165 c13 -14 26 -25 28 -25 3 0 -5 11 -18 25 -13 14 -26 25
-28 25 -3 0 5 -11 18 -25z"/>
<path d="M61676 3117 c3 -10 9 -15 12 -12 3 3 0 11 -7 18 -10 9 -11 8 -5 -6z"/>
<path d="M71756 3111 c-3 -4 0 -15 7 -24 11 -15 14 -14 36 3 13 11 19 20 14
20 -5 0 -14 -5 -20 -11 -13 -13 -36 -3 -28 12 4 5 4 9 1 9 -3 0 -7 -4 -10 -9z"/>
<path d="M71835 3110 c-3 -6 1 -7 9 -4 18 7 21 14 7 14 -6 0 -13 -4 -16 -10z"/>
<path d="M61712 3000 c0 -19 2 -27 5 -17 2 9 2 25 0 35 -3 9 -5 1 -5 -18z"/>
<path d="M71529 2983 c-13 -17 -13 -17 6 -3 11 8 22 16 24 17 2 2 0 3 -6 3 -6
0 -17 -8 -24 -17z"/>
<path d="M61705 2950 c-3 -5 -1 -10 4 -10 6 0 11 5 11 10 0 6 -2 10 -4 10 -3
0 -8 -4 -11 -10z"/>
<path d="M71045 2870 c-3 -6 1 -7 9 -4 18 7 21 14 7 14 -6 0 -13 -4 -16 -10z"/>
<path d="M20697 3053 c1052 -2 2774 -2 3825 0 1052 1 192 2 -1912 2 -2104 0
-2964 -1 -1913 -2z"/>
<path d="M33766 38735 c-61 -8 -152 -21 -202 -31 l-93 -17 6 -31 c8 -44 15
-48 66 -37 84 19 248 41 353 48 l104 6 0 39 0 38 -62 -1 c-35 -1 -112 -7 -172
-14z"/>
<path d="M34364 38693 c-4 -19 -4 -36 -1 -39 2 -3 51 -16 108 -29 109 -24 258
-74 321 -106 49 -25 52 -25 70 15 l17 34 -69 31 c-105 46 -269 97 -392 120
l-48 8 -6 -34z"/>
<path d="M32987 38535 c-60 -24 -125 -51 -145 -61 -73 -33 -197 -96 -204 -103
-4 -3 1 -20 11 -37 l19 -31 109 52 c60 29 163 74 229 100 65 26 122 51 127 54
10 10 -12 71 -26 70 -7 0 -61 -20 -120 -44z"/>
<path d="M34070 38373 c-23 -65 -59 -176 -80 -248 l-38 -130 37 -11 c44 -14
47 -13 55 28 10 55 67 237 108 347 21 57 38 105 38 106 0 4 -61 25 -70 25 -5
0 -27 -53 -50 -117z"/>
<path d="M35163 38331 l-22 -28 95 -94 c52 -52 127 -138 167 -191 39 -54 74
-98 77 -98 3 0 18 10 34 23 l28 23 -78 104 c-73 99 -253 291 -271 289 -4 0
-18 -13 -30 -28z"/>
<path d="M32200 38113 c-115 -80 -283 -208 -301 -229 -10 -13 -8 -19 13 -40
l25 -26 144 109 c79 59 172 126 206 148 35 22 63 44 63 48 0 15 -32 57 -44 57
-6 -1 -54 -31 -106 -67z"/>
<path d="M31499 37518 c-144 -154 -239 -263 -239 -276 0 -6 13 -20 28 -31 l28
-20 75 87 c40 47 118 132 172 188 53 56 97 106 97 111 0 9 -42 53 -51 53 -3 0
-52 -51 -110 -112z"/>
<path d="M33876 37589 c-16 -114 -26 -245 -26 -362 l0 -128 38 3 37 3 6 170
c4 94 12 208 18 254 7 45 10 85 8 87 -3 3 -20 7 -39 11 -35 5 -35 5 -42 -38z"/>
<path d="M35677 37618 c-34 -12 -35 -3 27 -183 25 -72 54 -173 64 -225 l20
-95 33 3 c18 1 35 5 38 8 21 21 -121 507 -148 503 -3 0 -19 -5 -34 -11z"/>
<path d="M31002 36898 c-47 -70 -130 -214 -182 -317 l-49 -98 35 -16 c41 -20
44 -20 44 -7 0 16 124 240 192 349 32 51 58 94 56 96 -30 21 -54 35 -60 35 -4
0 -20 -19 -36 -42z"/>
<path d="M35805 36711 c-22 -174 -61 -335 -101 -413 -8 -15 -14 -29 -14 -32 0
-6 55 -36 65 -36 12 0 57 115 80 205 25 94 42 189 47 265 3 45 2 45 -34 51
l-37 6 -6 -46z"/>
<path d="M33883 36725 c-9 -26 33 -223 78 -359 51 -156 47 -150 92 -131 l37
15 -21 53 c-34 85 -69 204 -93 322 l-23 110 -32 3 c-22 2 -33 -2 -38 -13z"/>
<path d="M30621 36132 c-16 -32 -91 -267 -120 -379 l-29 -111 39 -10 39 -10 9
37 c6 20 17 65 26 101 9 36 37 128 63 205 26 77 47 144 47 148 0 5 -15 15 -32
22 -29 12 -34 12 -42 -3z"/>
<path d="M35449 35952 c-86 -73 -186 -128 -314 -171 -47 -16 -86 -32 -87 -35
-3 -25 14 -66 27 -66 33 0 172 53 252 95 94 49 203 130 203 149 0 7 -11 23
-24 35 l-24 22 -33 -29z"/>
<path d="M34242 35927 c-12 -13 -22 -28 -22 -35 0 -17 123 -123 192 -165 68
-41 180 -79 237 -81 34 -1 36 1 39 34 l3 36 -63 13 c-97 19 -199 74 -283 152
-40 38 -75 69 -77 69 -3 0 -14 -10 -26 -23z"/>
<path d="M30396 35238 c-16 -110 -35 -311 -38 -393 l-3 -90 36 -3 35 -3 13
153 c6 84 18 200 26 257 8 57 14 105 12 107 -1 1 -18 5 -38 9 l-36 7 -7 -44z"/>
<path d="M30346 34381 c-6 -9 8 -328 20 -455 l7 -68 35 5 c19 4 36 8 38 10 3
2 0 58 -5 123 -6 65 -13 181 -17 257 l-6 137 -34 0 c-18 0 -35 -4 -38 -9z"/>
<path d="M30453 33502 c-18 -2 -33 -8 -33 -14 0 -41 85 -496 94 -506 2 -2 21
0 41 4 31 6 36 10 31 28 -10 35 -74 377 -81 433 -4 29 -10 54 -13 56 -4 1 -22
1 -39 -1z"/>
<path d="M30630 32629 c-13 -6 -26 -11 -27 -13 -8 -7 133 -475 147 -490 14
-14 72 14 67 33 -2 9 -28 92 -56 184 -28 92 -58 197 -67 233 -17 66 -22 70
-64 53z"/>
<path d="M18495 31845 c-38 -7 -106 -27 -150 -45 -142 -58 -174 -57 -370 14
-136 49 -197 49 -291 1 -211 -107 -533 -407 -534 -497 0 -12 -13 -21 -42 -28
-75 -19 -82 -22 -143 -53 -123 -61 -220 -190 -260 -342 -52 -203 -42 -378 36
-600 28 -81 32 -107 39 -261 22 -460 135 -679 375 -723 71 -13 115 -14 134 -2
11 7 19 65 32 223 10 117 18 218 18 224 1 7 -26 13 -67 16 -165 12 -294 151
-293 315 1 79 11 118 45 177 30 51 80 98 139 128 45 23 201 39 217 22 4 -5 11
-76 14 -159 4 -82 9 -177 11 -210 2 -33 7 -141 10 -240 13 -368 94 -624 245
-776 143 -142 309 -199 585 -199 l133 0 5 -32 c7 -53 9 -192 1 -211 -6 -16
-61 -17 -793 -17 -562 0 -790 3 -798 11 -8 8 -122 10 -395 6 -374 -4 -385 -5
-473 -30 -254 -72 -530 -220 -691 -370 -134 -125 -257 -295 -349 -482 -160
-328 -494 -1076 -679 -1521 -100 -242 -261 -654 -272 -699 -6 -24 0 -28 167
-109 401 -194 893 -377 1280 -476 l127 -32 -19 -86 c-11 -47 -22 -89 -27 -93
-7 -7 -472 -206 -620 -265 -50 -20 -71 -34 -69 -44 2 -8 10 -14 18 -12 17 4
623 259 660 278 24 12 116 1 800 -91 426 -58 1058 -144 1404 -191 732 -99
1093 -148 1474 -200 l274 -37 221 48 c122 26 259 57 306 70 156 42 224 54 365
60 77 4 154 8 170 10 17 2 98 4 182 5 l152 1 85 -40 c104 -48 196 -111 232
-158 35 -46 44 -116 19 -143 -17 -19 -16 -21 24 -65 31 -34 41 -53 41 -78 0
-37 -32 -87 -55 -87 -21 0 -28 -19 -15 -36 7 -8 13 -32 14 -53 1 -45 -22 -77
-71 -97 -29 -13 -31 -16 -21 -42 12 -31 6 -67 -14 -95 -23 -31 -88 -33 -180
-4 -128 40 -158 43 -213 18 -91 -40 -305 -166 -305 -179 0 -8 -9 -16 -20 -19
-12 -3 -52 -20 -89 -38 -77 -37 -132 -50 -271 -65 -117 -13 -630 -26 -1350
-34 -300 -4 -630 -9 -735 -11 -104 -2 -680 -7 -1280 -11 -599 -4 -1091 -8
-1093 -9 -3 -3 -27 -2196 -33 -3040 l-3 -360 64 -6 c36 -3 94 -9 130 -13 478
-47 1724 -68 2270 -38 214 12 589 41 749 58 59 7 63 6 58 -12 -3 -10 -17 -82
-31 -159 -29 -161 -35 -306 -52 -1144 -6 -297 -8 -326 -25 -340 -17 -15 -21
-131 -68 -2021 l-51 -2006 -165 -1209 c-91 -666 -244 -1784 -340 -2485 -96
-701 -181 -1324 -190 -1384 -8 -60 -15 -118 -15 -128 0 -21 27 -35 40 -22 5 5
88 590 185 1299 549 4021 533 3903 539 4070 3 88 11 376 17 640 6 264 15 484
19 488 4 5 11 -13 15 -40 5 -26 9 -52 11 -58 1 -5 43 -203 93 -440 51 -236
107 -502 126 -590 48 -226 191 -887 209 -965 8 -36 17 -76 19 -90 3 -14 33
-149 67 -300 34 -151 66 -295 71 -320 5 -25 18 -83 29 -130 11 -47 27 -119 35
-160 14 -65 28 -127 65 -285 5 -22 21 -92 35 -155 15 -63 42 -178 61 -255 18
-77 35 -149 37 -160 14 -77 19 -102 24 -115 3 -8 7 -22 8 -30 1 -8 12 -51 23
-95 12 -44 23 -91 26 -105 8 -39 11 -54 55 -235 55 -226 68 -277 86 -360 8
-38 22 -92 30 -120 8 -27 31 -117 51 -200 42 -168 81 -320 114 -440 12 -44 34
-129 50 -190 33 -129 99 -368 142 -510 16 -55 45 -152 63 -215 51 -173 186
-565 196 -568 5 -2 7 -7 4 -12 -6 -9 61 -165 116 -271 58 -111 90 -139 175
-149 113 -14 433 17 669 66 577 119 945 266 945 379 0 17 -45 366 -99 775 -55
410 -100 768 -100 795 0 28 -38 338 -85 690 -47 352 -207 1558 -355 2680 -149
1122 -304 2297 -346 2610 -41 314 -98 739 -125 945 -27 206 -84 632 -125 945
-42 314 -102 773 -135 1020 -126 949 -117 892 -139 914 -12 12 -21 35 -22 54
0 17 -2 46 -4 62 -12 94 -26 193 -29 211 -2 11 -7 47 -10 80 -4 32 -11 91 -17
129 -24 167 -25 155 13 189 l35 31 -58 690 c-31 380 -67 800 -78 935 -52 613
-111 1342 -111 1373 0 33 4 36 108 93 125 69 150 72 277 30 109 -35 165 -35
206 2 27 24 33 38 37 83 4 48 8 57 33 72 39 22 62 78 54 128 -6 34 -3 44 24
74 43 49 43 105 1 164 -28 37 -30 46 -21 77 6 20 33 60 61 90 67 70 115 174
135 288 19 110 19 165 0 286 -18 122 -37 183 -91 298 -52 112 -94 172 -191
272 l-73 76 68 33 c95 46 222 122 222 132 0 11 -337 854 -413 1034 -174 413
-601 1327 -630 1350 -7 6 -37 46 -67 90 -150 220 -419 419 -713 529 -227 85
-250 89 -577 95 l-295 6 -12 105 c-6 58 -11 128 -12 155 0 49 1 51 45 79 123
78 201 249 224 494 12 128 1 335 -20 356 -16 15 -429 13 -490 -3 -25 -7 -61
-12 -80 -11 -20 0 -132 -11 -250 -24 -371 -42 -356 -42 -375 -12 -24 35 -58
218 -99 519 -37 270 -48 309 -107 392 -30 42 -213 466 -200 464 3 0 71 -87
151 -194 l145 -193 70 -21 c215 -64 421 -94 640 -94 326 0 537 77 722 261 142
141 235 281 264 396 6 26 9 78 7 118 -10 126 -120 307 -235 385 -143 96 -327
131 -508 98z m-237 -2280 c41 0 68 7 95 22 20 12 37 18 37 14 0 -17 -87 -51
-130 -51 -46 0 -134 36 -124 51 3 5 19 -1 35 -13 23 -17 44 -23 87 -23z m286
-527 c64 -665 75 -740 161 -1128 46 -206 96 -436 111 -510 20 -97 34 -141 49
-155 11 -11 207 -189 435 -395 368 -333 929 -845 1095 -999 220 -205 256 -239
500 -470 250 -236 317 -320 385 -480 60 -140 75 -215 75 -381 0 -124 -3 -156
-24 -220 -26 -85 -54 -137 -107 -198 l-37 -43 -17 38 c-36 79 -189 190 -331
240 -70 24 -80 25 -223 19 -288 -13 -481 -27 -544 -42 -41 -9 -69 -11 -80 -5
-46 26 -220 225 -301 345 -29 42 -56 76 -61 76 -10 0 -176 271 -397 650 -217
372 -582 1016 -823 1450 -63 113 -122 216 -132 229 -59 77 -92 303 -87 584 2
103 0 187 -4 187 -22 0 -157 -70 -158 -82 -12 -228 -14 -240 -47 -269 -32 -29
-67 -32 -97 -8 -6 4 -10 75 -10 176 0 197 -3 190 117 280 98 73 154 89 259 73
44 -6 84 -8 90 -4 24 14 -12 25 -109 31 -83 5 -110 3 -146 -11 -56 -22 -193
-125 -219 -166 -25 -39 -30 -117 -19 -260 7 -91 6 -120 -4 -137 -18 -29 -48
-37 -81 -21 -22 10 -28 21 -30 48 0 19 -8 67 -17 107 -26 119 -31 222 -13 265
21 51 84 116 202 211 144 115 155 120 320 111 99 -5 135 -4 135 5 0 6 -1 11
-2 12 -46 10 -249 15 -303 7 -93 -14 -130 -34 -280 -153 -204 -162 -279 -200
-308 -154 -16 25 20 86 103 173 124 130 357 318 436 352 40 17 128 -1 312 -62
73 -24 137 -44 142 -44 20 0 10 21 -14 30 -13 5 -27 17 -30 27 -3 10 -4 149
-2 308 4 320 9 350 68 400 46 39 55 33 62 -37z m133 -11050 c-3 -8 -6 -5 -6 6
-1 11 2 17 5 13 3 -3 4 -12 1 -19z m0 -50 c-3 -8 -6 -5 -6 6 -1 11 2 17 5 13
3 -3 4 -12 1 -19z m-10 -340 c-3 -8 -6 -5 -6 6 -1 11 2 17 5 13 3 -3 4 -12 1
-19z m0 -120 c-2 -13 -4 -3 -4 22 0 25 2 35 4 23 2 -13 2 -33 0 -45z m-10
-420 c-3 -8 -6 -5 -6 6 -1 11 2 17 5 13 3 -3 4 -12 1 -19z m-10 -240 c-3 -8
-6 -5 -6 6 -1 11 2 17 5 13 3 -3 4 -12 1 -19z m0 -50 c-3 -7 -5 -2 -5 12 0 14
2 19 5 13 2 -7 2 -19 0 -25z m0 -60 c-3 -8 -6 -5 -6 6 -1 11 2 17 5 13 3 -3 4
-12 1 -19z m2450 -210 c-3 -8 -6 -5 -6 6 -1 11 2 17 5 13 3 -3 4 -12 1 -19z
m-2470 -540 c-3 -8 -6 -5 -6 6 -1 11 2 17 5 13 3 -3 4 -12 1 -19z m0 -80 c-3
-8 -6 -5 -6 6 -1 11 2 17 5 13 3 -3 4 -12 1 -19z m2560 -60 c-3 -8 -6 -5 -6 6
-1 11 2 17 5 13 3 -3 4 -12 1 -19z m-2570 -230 c-2 -13 -4 -3 -4 22 0 25 2 35
4 23 2 -13 2 -33 0 -45z m0 -65 c-3 -10 -5 -4 -5 12 0 17 2 24 5 18 2 -7 2
-21 0 -30z m2680 -535 c-3 -8 -6 -5 -6 6 -1 11 2 17 5 13 3 -3 4 -12 1 -19z
m10 -90 c-3 -7 -5 -2 -5 12 0 14 2 19 5 13 2 -7 2 -19 0 -25z m40 -300 c-3 -8
-6 -5 -6 6 -1 11 2 17 5 13 3 -3 4 -12 1 -19z m20 -150 c-3 -8 -6 -5 -6 6 -1
11 2 17 5 13 3 -3 4 -12 1 -19z m10 -70 c-3 -8 -6 -5 -6 6 -1 11 2 17 5 13 3
-3 4 -12 1 -19z m10 -80 c-3 -7 -5 -2 -5 12 0 14 2 19 5 13 2 -7 2 -19 0 -25z
m10 -80 c-3 -7 -5 -2 -5 12 0 14 2 19 5 13 2 -7 2 -19 0 -25z m40 -300 c-3 -7
-5 -2 -5 12 0 14 2 19 5 13 2 -7 2 -19 0 -25z m60 -440 c-3 -8 -6 -5 -6 6 -1
11 2 17 5 13 3 -3 4 -12 1 -19z m10 -80 c-3 -8 -6 -5 -6 6 -1 11 2 17 5 13 3
-3 4 -12 1 -19z m60 -450 c-3 -8 -6 -5 -6 6 -1 11 2 17 5 13 3 -3 4 -12 1 -19z
m30 -240 c-3 -7 -5 -2 -5 12 0 14 2 19 5 13 2 -7 2 -19 0 -25z m40 -290 c-3
-8 -6 -5 -6 6 -1 11 2 17 5 13 3 -3 4 -12 1 -19z m10 -70 c-3 -8 -6 -5 -6 6
-1 11 2 17 5 13 3 -3 4 -12 1 -19z m10 -70 c-3 -8 -6 -5 -6 6 -1 11 2 17 5 13
3 -3 4 -12 1 -19z m10 -80 c-3 -8 -6 -5 -6 6 -1 11 2 17 5 13 3 -3 4 -12 1
-19z m10 -90 c-3 -7 -5 -2 -5 12 0 14 2 19 5 13 2 -7 2 -19 0 -25z m10 -60
c-3 -8 -6 -5 -6 6 -1 11 2 17 5 13 3 -3 4 -12 1 -19z m20 -170 c-3 -7 -5 -2
-5 12 0 14 2 19 5 13 2 -7 2 -19 0 -25z m10 -60 c-3 -8 -6 -5 -6 6 -1 11 2 17
5 13 3 -3 4 -12 1 -19z m10 -80 c-3 -8 -6 -5 -6 6 -1 11 2 17 5 13 3 -3 4 -12
1 -19z m10 -80 c-3 -7 -5 -2 -5 12 0 14 2 19 5 13 2 -7 2 -19 0 -25z m10 -70
c-3 -8 -6 -5 -6 6 -1 11 2 17 5 13 3 -3 4 -12 1 -19z m20 -150 c-3 -8 -6 -5
-6 6 -1 11 2 17 5 13 3 -3 4 -12 1 -19z m10 -70 c-3 -8 -6 -5 -6 6 -1 11 2 17
5 13 3 -3 4 -12 1 -19z m20 -150 c-3 -8 -6 -5 -6 6 -1 11 2 17 5 13 3 -3 4
-12 1 -19z m10 -80 c-3 -8 -6 -5 -6 6 -1 11 2 17 5 13 3 -3 4 -12 1 -19z m10
-80 c-3 -8 -6 -5 -6 6 -1 11 2 17 5 13 3 -3 4 -12 1 -19z m20 -160 c-3 -7 -5
-2 -5 12 0 14 2 19 5 13 2 -7 2 -19 0 -25z m10 -70 c-3 -7 -5 -2 -5 12 0 14 2
19 5 13 2 -7 2 -19 0 -25z m10 -80 c-3 -7 -5 -2 -5 12 0 14 2 19 5 13 2 -7 2
-19 0 -25z m10 -70 c-3 -7 -5 -2 -5 12 0 14 2 19 5 13 2 -7 2 -19 0 -25z m10
-80 c-3 -7 -5 -2 -5 12 0 14 2 19 5 13 2 -7 2 -19 0 -25z m10 -60 c-3 -8 -6
-5 -6 6 -1 11 2 17 5 13 3 -3 4 -12 1 -19z m20 -175 c-3 -10 -5 -2 -5 17 0 19
2 27 5 18 2 -10 2 -26 0 -35z m10 -65 c-3 -8 -6 -5 -6 6 -1 11 2 17 5 13 3 -3
4 -12 1 -19z m10 -85 c-3 -10 -5 -2 -5 17 0 19 2 27 5 18 2 -10 2 -26 0 -35z
m10 -65 c-3 -8 -6 -5 -6 6 -1 11 2 17 5 13 3 -3 4 -12 1 -19z m10 -70 c-3 -7
-5 -2 -5 12 0 14 2 19 5 13 2 -7 2 -19 0 -25z m10 -70 c-3 -8 -6 -5 -6 6 -1
11 2 17 5 13 3 -3 4 -12 1 -19z m20 -170 c-3 -7 -5 -2 -5 12 0 14 2 19 5 13 2
-7 2 -19 0 -25z m10 -60 c-3 -8 -6 -5 -6 6 -1 11 2 17 5 13 3 -3 4 -12 1 -19z
m10 -70 c-3 -8 -6 -5 -6 6 -1 11 2 17 5 13 3 -3 4 -12 1 -19z"/>
<path d="M58757 31163 c-58 -148 -173 -438 -255 -645 -171 -431 -165 -376 -42
-438 199 -101 436 -127 640 -70 77 21 250 101 269 124 7 9 -59 189 -242 654
-139 353 -255 642 -258 642 -3 0 -53 -120 -112 -267z"/>
<path d="M18040 30411 c-58 -18 -160 -83 -160 -103 0 -22 32 -18 62 8 53 44
107 64 176 64 62 0 72 6 50 28 -13 13 -88 15 -128 3z"/>
<path d="M18435 30380 c-9 -15 53 -48 113 -61 87 -18 192 6 192 43 0 22 1 22
-43 3 -49 -20 -121 -18 -187 5 -65 23 -67 23 -75 10z"/>
<path d="M18567 30212 c-22 -25 -21 -55 2 -76 27 -25 72 -17 90 15 13 24 13
29 -2 53 -21 31 -66 35 -90 8z"/>
<path d="M17990 30140 c-21 -21 -25 -47 -12 -66 8 -13 46 -34 61 -34 18 0 51
39 51 60 0 11 -9 29 -20 40 -11 11 -29 20 -40 20 -11 0 -29 -9 -40 -20z"/>
<path d="M25603 25313 c32 -2 81 -2 110 0 29 2 3 3 -58 3 -60 0 -84 -1 -52 -3z"/>
<path d="M25458 25303 c6 -2 18 -2 25 0 6 3 1 5 -13 5 -14 0 -19 -2 -12 -5z"/>
<path d="M25398 25293 c7 -3 16 -2 19 1 4 3 -2 6 -13 5 -11 0 -14 -3 -6 -6z"/>
<path d="M25948 25283 c7 -3 16 -2 19 1 4 3 -2 6 -13 5 -11 0 -14 -3 -6 -6z"/>
<path d="M26240 25166 c0 -2 8 -10 18 -17 15 -13 16 -12 3 4 -13 16 -21 21
-21 13z"/>
<path d="M24939 25063 c-13 -16 -12 -17 4 -4 16 13 21 21 13 21 -2 0 -10 -8
-17 -17z"/>
<path d="M61828 23829 c-737 -961 -1402 -2095 -1874 -3193 -54 -127 -70 -175
-64 -190 36 -91 161 -414 284 -731 81 -208 177 -453 212 -543 36 -90 63 -166
61 -168 -2 -2 -37 33 -77 78 -40 46 -112 126 -159 177 -165 182 -207 228 -341
376 -74 83 -153 169 -175 193 l-41 44 -67 -209 c-219 -685 -349 -1280 -407
-1865 l-12 -116 172 -276 c95 -152 177 -273 183 -269 6 3 7 1 3 -5 -4 -6 20
-53 52 -104 97 -152 544 -865 629 -1001 30 -49 53 -91 50 -93 -3 -3 -36 14
-73 37 -110 67 -470 287 -574 349 -52 31 -171 105 -264 164 -94 59 -179 112
-189 118 -20 10 -20 7 -13 -113 69 -1202 431 -2180 1026 -2765 l92 -92 -11
-93 c-20 -171 -71 -653 -71 -671 0 -16 12 -18 129 -18 l128 0 7 98 c9 135 58
727 59 728 1 1 61 30 132 64 244 117 490 273 659 420 254 219 428 410 613 672
157 223 416 736 478 946 8 27 39 28 -255 -8 -91 -11 -185 -22 -210 -25 -25 -3
-99 -12 -165 -20 -141 -17 -135 -17 -135 -7 0 7 131 93 762 497 l172 110 18
70 c37 146 98 468 127 670 55 384 76 633 93 1102 16 471 -3 1041 -55 1637
l-12 139 -90 -99 c-381 -419 -1262 -1354 -1276 -1354 -5 0 0 19 10 43 57 130
165 377 181 412 37 84 201 457 265 605 108 249 284 650 311 708 13 29 24 54
24 57 0 2 13 32 29 67 16 35 54 122 86 193 101 231 151 347 221 505 l67 154
-37 211 c-60 333 -199 1022 -210 1032 -1 1 -128 -173 -281 -388 -154 -215
-281 -387 -283 -381 -1 5 11 45 29 88 106 267 429 1117 429 1129 0 31 -137
552 -223 844 l-54 184 -95 -124z"/>
<path d="M26485 23608 c-61 -185 -188 -466 -256 -565 l-30 -43 1843 -3 c2017
-3 1865 1 2043 -60 352 -121 633 -427 727 -791 16 -65 22 -126 27 -301 l6
-220 325 -5 c179 -3 336 -3 349 -2 l24 4 -6 231 c-4 128 -13 268 -21 312 -90
510 -362 932 -784 1219 -151 102 -372 203 -545 247 -220 56 -90 52 -1954 56
l-1721 3 -27 -82z"/>
<path d="M25965 22830 c-3 -6 1 -7 9 -4 18 7 21 14 7 14 -6 0 -13 -4 -16 -10z"/>
<path d="M25618 22753 c12 -2 32 -2 45 0 12 2 2 4 -23 4 -25 0 -35 -2 -22 -4z"/>
<path d="M57260 21898 c-1 -216 -7 -2764 -14 -5663 -8 -2898 -12 -5273 -9
-5277 2 -5 26 -8 52 -8 l48 0 6 558 c4 306 7 1153 7 1882 1 729 5 2774 10
4545 5 1771 9 3475 10 3788 l0 567 -55 0 -55 0 0 -392z"/>
<path d="M15672 18792 c-10 -7 7 -306 82 -1448 53 -791 114 -1729 137 -2084
l43 -645 -12 -630 c-21 -1049 -60 -2106 -88 -2367 -6 -49 -4 -59 10 -64 36
-14 40 5 56 261 5 88 12 216 15 285 3 69 8 166 10 215 7 128 23 669 30 1010 3
160 8 331 10 380 2 50 7 259 10 465 4 206 8 385 10 398 3 19 -31 576 -50 807
-3 39 -14 205 -25 370 -25 380 -28 423 -45 660 -2 33 -7 103 -10 155 -3 52 -8
120 -10 150 -2 30 -7 96 -10 145 -3 50 -8 124 -10 165 -3 41 -14 219 -25 395
-11 176 -22 356 -25 400 -3 44 -12 186 -20 315 -37 575 -43 648 -50 660 -7 12
-16 12 -33 2z"/>
<path d="M61210 12115 c-52 -7 -156 -25 -230 -40 -248 -48 -392 -66 -575 -72
-169 -5 -183 -4 -235 17 -30 12 -64 23 -75 25 -11 1 -47 10 -80 18 -231 62
-547 68 -812 16 -49 -10 -53 -12 -59 -46 -13 -68 3 -493 21 -557 38 -141 135
-262 263 -329 128 -68 117 -67 918 -67 449 0 742 4 775 10 184 35 334 188 368
374 6 34 11 186 11 353 l0 293 -26 10 c-34 13 -147 11 -264 -5z"/>
<path d="M16490 7580 c0 -27 138 -93 255 -121 94 -22 257 -27 249 -6 -3 8 -30
12 -82 13 -108 1 -219 28 -321 80 -95 47 -101 49 -101 34z"/>
<path d="M21235 7581 c-12 -21 135 -92 251 -121 96 -25 254 -28 254 -6 0 11
-9 13 -34 9 -87 -14 -294 36 -402 97 -60 34 -61 34 -69 21z"/>
<path d="M16180 7151 c0 -15 139 -101 146 -90 3 6 4 12 3 13 -95 71 -149 99
-149 77z"/>
<path d="M20930 7150 c0 -5 26 -27 58 -48 81 -55 82 -55 82 -38 0 8 -27 33
-59 56 -60 40 -81 48 -81 30z"/>
<path d="M16086 7131 c-6 -10 115 -101 133 -101 25 0 7 21 -53 64 -69 50 -72
51 -80 37z"/>
<path d="M20835 7129 c-4 -5 -5 -12 -4 -13 49 -39 133 -86 140 -79 6 6 -12 25
-48 50 -78 54 -81 55 -88 42z"/>
</g>
</svg>
